<!-- icon666.com - MILLIONS vector ICONS FREE --><svg id="Capa_1" enable-background="new 0 0 512 512" viewBox="0 0 512 512" xmlns="http://www.w3.org/2000/svg"><g><g><path d="m228.93 104.452v-31.965c0-7.986-5.457-15.388-13.34-16.67-10.044-1.634-18.725 6.075-18.725 15.812v32.823c-94.57 8.528-167.621 91.669-159.74 190.125 6.923 86.477 77.91 156.089 164.496 161.475l132.256-47.687c34.094-32.156 55.376-77.751 55.376-128.317-.001-91.99-70.444-167.491-160.323-175.596z" fill="#dbd8db"></path><path d="m337.562 404.713-249.323-249.323c-35.068 35.049-55.471 84.763-51.114 139.186 6.922 86.477 77.909 156.089 164.495 161.475 53.146 3.306 101.582-16.978 135.942-51.338z" fill="#c9c5c9"></path><circle cx="212.897" cy="280.048" fill="#eceaec" r="144.29"></circle><circle cx="212.897" cy="280.048" fill="#fff" r="120.242"></circle><circle cx="212.897" cy="280.048" fill="#fb4455" r="16.032"></circle><path d="m352.245 319.927-93.281 160.484c-6.212 10.688 1.498 24.089 13.861 24.089h186.562c12.362 0 20.073-13.401 13.861-24.089l-93.281-160.484c-6.182-10.634-21.541-10.634-27.722 0z" fill="#ff5f7a"></path><path d="m300.723 472.416c-2.896-5.034-2.881-11.034.031-16.056l79.258-136.354-.046-.079c-6.18-10.634-21.54-10.634-27.722 0l-93.28 160.484c-6.213 10.688 1.498 24.089 13.861 24.089h186.562c12.348 0 20.047-13.367 13.878-24.048h-158.647c-5.809 0-10.999-3.003-13.895-8.036z" fill="#fb4455"></path></g><g><path d="m479.732 476.642-93.281-160.484c-4.261-7.33-11.867-11.707-20.345-11.707s-16.084 4.376-20.345 11.707l-93.281 160.484c-4.282 7.368-4.301 16.176-.051 23.562s11.874 11.796 20.395 11.796h186.562c8.521 0 16.146-4.41 20.396-11.796s4.232-16.194-.05-23.562zm-12.95 16.081c-.74 1.286-2.942 4.277-7.396 4.277h-186.562c-4.454 0-6.655-2.991-7.396-4.277-.74-1.286-2.219-4.693.019-8.543l93.281-160.484c2.227-3.831 5.9-4.245 7.376-4.245s5.15.414 7.376 4.245l93.281 160.484c2.241 3.851.761 7.257.021 8.543z"></path><path d="m365.204 439.854c4.142 0 7.5-3.357 7.5-7.5v-56.112c0-4.143-3.358-7.5-7.5-7.5s-7.5 3.357-7.5 7.5v56.112c0 4.143 3.358 7.5 7.5 7.5z"></path><path d="m365.284 456.919h-.08c-4.142 0-7.46 3.358-7.46 7.5s3.398 7.5 7.54 7.5 7.5-3.358 7.5-7.5-3.358-7.5-7.5-7.5z"></path><path d="m237.038 447.191c-7.938 1.136-16.06 1.712-24.14 1.712-93.107 0-168.855-75.748-168.855-168.855s75.748-168.855 168.855-168.855 168.854 75.748 168.854 168.855c0 2.063-.037 4.146-.111 6.19-.149 4.139 3.086 7.616 7.226 7.765 4.123.15 7.616-3.086 7.765-7.226.08-2.223.121-4.487.121-6.729 0-89.698-64.571-164.586-149.669-180.655 13.019-10.185 21.412-26.024 21.412-43.797-.002-30.656-24.942-55.596-55.598-55.596s-55.598 24.94-55.598 55.597c0 17.772 8.393 33.612 21.412 43.797-85.098 16.068-149.67 90.957-149.67 180.655 0 101.378 82.477 183.855 183.855 183.855 8.789 0 17.625-.627 26.265-1.863 4.1-.587 6.949-4.386 6.362-8.487-.586-4.101-4.383-6.949-8.486-6.363zm-15.608-351.907c-2.753.591-5.605.91-8.532.91s-5.78-.318-8.532-.91v-23.655c0-4.705 3.828-8.532 8.532-8.532s8.532 3.828 8.532 8.532zm-49.13-39.687c0-22.385 18.212-40.597 40.598-40.597s40.597 18.212 40.597 40.597c0 13.617-6.746 25.681-17.064 33.049v-17.017c0-12.976-10.557-23.532-23.532-23.532s-23.532 10.557-23.532 23.532v17.017c-10.32-7.368-17.067-19.432-17.067-33.049z"></path><path d="m357.188 287.548c4.142 0 7.5-3.358 7.5-7.5 0-83.698-68.093-151.791-151.79-151.791-83.698 0-151.791 68.093-151.791 151.791s68.093 151.791 151.791 151.791c17.456 0 34.573-2.94 50.875-8.738 3.903-1.388 5.941-5.677 4.553-9.58s-5.678-5.941-9.58-4.553c-14.685 5.223-30.11 7.871-45.849 7.871-75.427 0-136.791-61.364-136.791-136.791s61.364-136.791 136.791-136.791c75.426 0 136.79 61.364 136.79 136.791.001 4.142 3.359 7.5 7.501 7.5z"></path><path d="m220.398 175.839v-8.017c0-4.142-3.358-7.5-7.5-7.5s-7.5 3.358-7.5 7.5v8.017c0 4.142 3.358 7.5 7.5 7.5s7.5-3.359 7.5-7.5z"></path><path d="m205.398 384.258v8.017c0 4.142 3.358 7.5 7.5 7.5s7.5-3.358 7.5-7.5v-8.017c0-4.142-3.358-7.5-7.5-7.5s-7.5 3.358-7.5 7.5z"></path><path d="m317.107 272.548c-4.142 0-7.5 3.358-7.5 7.5s3.358 7.5 7.5 7.5h8.016c4.142 0 7.5-3.358 7.5-7.5s-3.358-7.5-7.5-7.5z"></path><path d="m100.672 272.548c-4.142 0-7.5 3.358-7.5 7.5s3.358 7.5 7.5 7.5h8.016c4.142 0 7.5-3.358 7.5-7.5s-3.358-7.5-7.5-7.5z"></path><path d="m290.346 202.6c-2.929-2.929-7.678-2.929-10.606 0l-56.379 56.378c-3.154-1.572-6.706-2.462-10.463-2.462-12.976 0-23.532 10.557-23.532 23.532 0 3.757.89 7.309 2.463 10.463l-8.282 8.282c-2.929 2.929-2.929 7.677 0 10.606 1.464 1.464 3.384 2.197 5.303 2.197s3.839-.732 5.303-2.197l8.282-8.282c3.154 1.572 6.706 2.462 10.463 2.462 12.976 0 23.532-10.557 23.532-23.532 0-3.757-.89-7.309-2.463-10.463l56.379-56.378c2.929-2.929 2.929-7.677 0-10.606zm-77.448 85.981c-4.705 0-8.532-3.828-8.532-8.532s3.828-8.532 8.532-8.532 8.532 3.828 8.532 8.532-3.828 8.532-8.532 8.532z"></path></g></g></svg>