<?xml version="1.0" standalone="no"?>
<!DOCTYPE svg PUBLIC "-//W3C//DTD SVG 20010904//EN"
 "http://www.w3.org/TR/2001/REC-SVG-20010904/DTD/svg10.dtd">
<svg version="1.0" xmlns="http://www.w3.org/2000/svg"
 width="700.000000pt" height="700.000000pt" viewBox="0 0 700.000000 700.000000"
 preserveAspectRatio="xMidYMid meet">
<metadata>
Created by potrace 1.14, written by Peter Selinger 2001-2017
</metadata>
<g transform="translate(0.000000,700.000000) scale(0.100000,-0.100000)"
fill="#000000" stroke="none">
<path d="M965 6993 c-50 -13 -108 -69 -126 -122 -7 -21 -12 -115 -12 -247 l-2
-214 -265 -1 c-146 0 -278 -3 -295 -5 -107 -18 -214 -116 -243 -224 -7 -22
-11 -942 -15 -2970 -3 -1491 -1 -1823 10 -1860 28 -93 104 -170 200 -202 51
-16 116 -18 1001 -18 521 -1 1224 -2 1562 -3 l615 -2 56 -106 c167 -315 387
-553 682 -737 179 -112 422 -209 622 -247 188 -36 485 -41 665 -10 606 102
1117 482 1383 1027 79 163 147 366 163 492 2 21 6 42 9 45 7 13 18 168 19 281
3 340 -99 709 -270 978 -19 29 -34 57 -34 62 0 6 -3 10 -7 10 -5 0 -15 12 -24
28 -28 48 -142 184 -217 259 -142 139 -297 252 -465 338 -50 26 -94 49 -96 51
-2 1 -2 355 -1 786 3 1578 3 1744 -5 1778 -19 86 -80 161 -167 206 -52 27 -58
28 -243 31 -104 1 -236 3 -292 3 l-103 0 0 220 c0 239 -4 263 -55 315 -102
101 -290 53 -324 -83 -5 -20 -9 -118 -9 -217 -1 -99 -1 -192 -1 -207 l-1 -27
-1724 3 c-948 2 -1728 6 -1732 9 -5 3 -9 97 -8 209 0 111 -4 219 -9 238 -12
45 -52 96 -91 116 -32 16 -116 26 -151 17z"/>
</g>
</svg>
